<?xml version="1.0" encoding="UTF-8" standalone="no"?>
<!-- Generator: Adobe Illustrator 17.1.0, SVG Export Plug-In . SVG Version: 6.00 Build 0)  -->

<svg
   xmlns:dc="http://purl.org/dc/elements/1.1/"
   xmlns:cc="http://creativecommons.org/ns#"
   xmlns:rdf="http://www.w3.org/1999/02/22-rdf-syntax-ns#"
   xmlns:svg="http://www.w3.org/2000/svg"
   xmlns="http://www.w3.org/2000/svg"
   xmlns:sodipodi="http://sodipodi.sourceforge.net/DTD/sodipodi-0.dtd"
   xmlns:inkscape="http://www.inkscape.org/namespaces/inkscape"
   version="1.1"
   id="Capa_1"
   x="0px"
   y="0px"
   viewBox="0 0 600 300"
   xml:space="preserve"
   inkscape:version="0.91 r13725"
   sodipodi:docname="batarang.svg"
   width="600"
   height="300"><metadata
     id="metadata39"><rdf:RDF><cc:Work
         rdf:about=""><dc:format>image/svg+xml</dc:format><dc:type
           rdf:resource="http://purl.org/dc/dcmitype/StillImage" /><dc:title></dc:title></cc:Work></rdf:RDF></metadata><defs
     id="defs37" /><sodipodi:namedview
     pagecolor="#ffffff"
     bordercolor="#666666"
     borderopacity="1"
     objecttolerance="10"
     gridtolerance="10"
     guidetolerance="10"
     inkscape:pageopacity="0"
     inkscape:pageshadow="2"
     inkscape:window-width="1366"
     inkscape:window-height="719"
     id="namedview35"
     showgrid="false"
     inkscape:zoom="0.53394148"
     inkscape:cx="220.998"
     inkscape:cy="220.998"
     inkscape:window-x="0"
     inkscape:window-y="24"
     inkscape:window-maximized="1"
     inkscape:current-layer="Capa_1" /><path
     d="m 596.54044,190.01163 c 0,-45.09089 -17.56009,-87.48336 -49.4443,-119.367574 -31.88496,-31.88495 -74.27817,-49.4458 -119.36907,-49.444294 -4.31867,0 -8.21227,2.601028 -9.865,6.591272 -1.65197,3.989492 -0.73916,8.582232 2.31487,11.636262 5.54255,5.54255 7.95331,11.46714 7.37119,18.11201 -1.05022,11.97828 -12.08398,26.14685 -30.27224,38.87184 -17.11918,11.979054 -35.96581,20.542404 -56.15334,25.533044 l -5.35078,-32.336464 c 0,-9.8e-4 -7.7e-4,-0.004 -7.7e-4,-0.005 l -5.29943,-32.02689 c -0.96188,-5.81663 -6.45914,-9.75401 -12.27802,-8.79137 -5.81738,0.96263 -9.75402,6.45914 -8.79214,12.27726 l 3.2443,19.61147 -23.57452,0 3.24503,-19.61223 c 0.9619,-5.81662 -2.97398,-11.31387 -8.7906,-12.27727 -5.81889,-0.96264 -11.31539,2.97401 -12.27803,8.79138 l -5.30019,32.03219 -5.41798,32.741894 c -20.79985,-4.91891 -40.20067,-13.61967 -57.8053,-25.937734 -5.89289,-4.12311 -11.06925,-8.40103 -15.38188,-12.71365 -8.63962,-8.6381 -13.7503,-17.3351 -14.78089,-25.15175 -0.92868,-7.05031 1.4466,-13.30333 7.26246,-19.11919 3.05403,-3.05404 3.96684,-7.64677 2.31487,-11.636272 -1.65498,-3.986465 -5.54556,-6.590515 -9.865,-6.591262 -93.084045,0 -168.8126114,75.728564 -168.8141214,168.812618 7.545e-4,2.87433 1.1551694,5.57805 3.1280192,7.55088 0.7497275,0.74974 1.615728,1.39377 2.5828999,1.90188 3.5123193,1.84526 7.7577583,1.59082 11.0247003,-0.65988 13.451312,-9.26703 29.232596,-14.16556 45.639785,-14.16631 21.503528,7.5e-4 41.721267,8.37536 56.928737,23.58283 8.54373,8.54374 15.15462,19.05503 19.11844,30.39683 1.14083,3.26694 3.79546,5.77661 7.12053,6.73699 3.32433,0.95962 6.90837,0.24763 9.6151,-1.90944 15.50948,-12.36257 34.19151,-18.89645 54.02495,-18.89571 23.16531,0 44.94669,9.02316 61.33198,25.40846 6.71735,6.71735 12.25461,14.42452 16.45703,22.90483 1.80221,3.63389 5.50857,5.93591 9.56752,5.93742 4.05895,0 7.7653,-2.30052 9.56752,-5.93742 14.76881,-29.80112 44.57522,-48.31403 77.79051,-48.31329 19.83419,0 38.51548,6.53314 54.02571,18.89496 2.70597,2.15782 6.29,2.8683 9.61509,1.90944 3.32508,-0.95888 5.97819,-3.47005 7.12054,-6.73698 11.2829,-32.28588 41.84357,-53.97817 76.04567,-53.97817 16.40642,0 32.18922,4.90004 45.63978,14.16632 3.26694,2.25069 7.51238,2.50514 11.0247,0.65989 3.51232,-1.84677 5.71167,-5.48669 5.71167,-9.45353 z m -62.37615,-26.73048 c -38.60306,7.6e-4 -73.53827,21.84253 -90.76013,55.55688 -16.83603,-10.27346 -35.96732,-15.64689 -56.04688,-15.64764 -35.15039,0 -67.23543,16.63293 -87.37842,44.38948 -3.28959,-4.50063 -6.93178,-8.75287 -10.9039,-12.725 -20.41857,-20.41857 -47.5628,-31.66373 -76.43148,-31.66373 -20.08486,0 -39.22067,5.37494 -56.06048,15.6552 -4.85021,-9.46334 -11.19156,-18.20261 -18.71753,-25.72858 -19.24075,-19.24075 -44.821346,-29.83736 -72.028997,-29.83736 -13.843919,0 -27.340533,2.76032 -39.84657,8.08014 8.38442,-66.12178 60.724196,-118.731844 126.721387,-127.515654 -1.66179,5.57727 -2.11554,11.44749 -1.31975,17.49062 1.67386,12.69554 8.68944,25.29973 20.85346,37.46224 5.19071,5.190724 11.32746,10.274974 18.23808,15.110834 23.14418,16.19201 49.03886,26.83544 76.96603,31.63354 2.80111,0.4817 5.67998,-0.17441 7.99711,-1.8226 2.31713,-1.64819 3.88076,-4.15258 4.3451,-6.95744 l 5.74791,-34.73438 30.64221,-7.6e-4 5.69808,34.43539 c 0.46661,2.82225 2.04684,5.33871 4.38587,6.98613 2.33828,1.6482 5.2398,2.2877 8.05524,1.77656 27.27031,-4.94912 52.57081,-15.48457 75.19778,-31.31644 24.06152,-16.836034 37.65251,-35.681924 39.30297,-54.504404 0.47037,-5.36285 -0.0566,-10.58603 -1.54627,-15.5744 31.97859,4.20919 61.53054,18.72432 84.72077,41.91455 23.40692,23.406924 37.9764,53.298644 42.03008,85.624524 -12.51058,-5.32434 -26.01247,-8.08694 -39.86167,-8.0877 z"
     id="path3"
     inkscape:connector-curvature="0"
     style="stroke-width:0;stroke-miterlimit:4;stroke-dasharray:none;stroke:#000000;stroke-opacity:1" /><g
     id="g5"
     transform="translate(0,-141.996)" /><g
     id="g7"
     transform="translate(0,-141.996)" /><g
     id="g9"
     transform="translate(0,-141.996)" /><g
     id="g11"
     transform="translate(0,-141.996)" /><g
     id="g13"
     transform="translate(0,-141.996)" /><g
     id="g15"
     transform="translate(0,-141.996)" /><g
     id="g17"
     transform="translate(0,-141.996)" /><g
     id="g19"
     transform="translate(0,-141.996)" /><g
     id="g21"
     transform="translate(0,-141.996)" /><g
     id="g23"
     transform="translate(0,-141.996)" /><g
     id="g25"
     transform="translate(0,-141.996)" /><g
     id="g27"
     transform="translate(0,-141.996)" /><g
     id="g29"
     transform="translate(0,-141.996)" /><g
     id="g31"
     transform="translate(0,-141.996)" /><g
     id="g33"
     transform="translate(0,-141.996)" /></svg>