<?xml version="1.0" encoding="UTF-8" standalone="no"?>
<!-- Generator: Adobe Illustrator 17.1.0, SVG Export Plug-In . SVG Version: 6.00 Build 0)  -->

<svg
   xmlns:dc="http://purl.org/dc/elements/1.1/"
   xmlns:cc="http://creativecommons.org/ns#"
   xmlns:rdf="http://www.w3.org/1999/02/22-rdf-syntax-ns#"
   xmlns:svg="http://www.w3.org/2000/svg"
   xmlns="http://www.w3.org/2000/svg"
   xmlns:sodipodi="http://sodipodi.sourceforge.net/DTD/sodipodi-0.dtd"
   xmlns:inkscape="http://www.inkscape.org/namespaces/inkscape"
   version="1.1"
   id="Capa_1"
   x="0px"
   y="0px"
   viewBox="0 0 399.99999 99.999997"
   xml:space="preserve"
   inkscape:version="0.91 r13725"
   sodipodi:docname="batman.svg"
   width="400"
   height="100"><metadata
     id="metadata39"><rdf:RDF><cc:Work
         rdf:about=""><dc:format>image/svg+xml</dc:format><dc:type
           rdf:resource="http://purl.org/dc/dcmitype/StillImage" /><dc:title></dc:title></cc:Work></rdf:RDF></metadata><defs
     id="defs37" /><sodipodi:namedview
     pagecolor="#ffffff"
     bordercolor="#666666"
     borderopacity="1"
     objecttolerance="10"
     gridtolerance="10"
     guidetolerance="10"
     inkscape:pageopacity="0"
     inkscape:pageshadow="2"
     inkscape:window-width="1366"
     inkscape:window-height="719"
     id="namedview35"
     showgrid="false"
     inkscape:zoom="2.2142263"
     inkscape:cx="218.32095"
     inkscape:cy="47.011281"
     inkscape:window-x="0"
     inkscape:window-y="24"
     inkscape:window-maximized="1"
     inkscape:current-layer="Capa_1" /><path
     d="m 149.90502,3.5098045 c -0.2352,-0.01443 -0.47469,0.0066 -0.71093,0.068359 -0.67422,0.175088 -16.60269,4.3531563 -25.98634,8.5488285 C 96.75556,23.951352 83.8636,40.11906 86.90307,57.65043 c 4.44757,25.65525 37.87271,38.184108 39.29297,38.705078 0.88199,0.32332 1.87419,0.07081 2.47656,-0.632813 0.60237,-0.70358 0.68163,-1.700235 0.19531,-2.484375 -0.0376,-0.0602 -3.76294,-6.107871 -4.6582,-10.832031 -0.23653,-1.24603 -0.82676,-5.52271 1.50976,-8.25 1.36168,-1.58976 3.57853,-2.394531 6.58594,-2.394531 l 0.15039,0 c 1.11044,0.01 2.22872,0.174969 3.33594,0.449219 l 0,-4.400391 c -1.08629,-0.21072 -2.18709,-0.335973 -3.29297,-0.345703 l -0.18945,0 c -4.38236,0 -7.74291,1.326709 -9.98438,3.943359 -3.46941,4.04851 -2.87652,9.583021 -2.46094,11.775391 0.41889,2.21062 1.31945,4.589363 2.25782,6.658203 -9.48203,-4.64252 -27.8796,-15.723783 -30.85938,-32.908203 -3.43073,-19.78817 16.48434,-33.164094 33.79492,-40.902344 5.52631,-2.47165 13.68454,-5.009168 19.22852,-6.6171876 -3.95683,6.7242396 -6.41219,16.5737866 1.33789,24.7792966 2.31054,2.44624 4.98515,4.20051 7.91016,5.22461 l 0,-4.685547 c -1.6858,-0.81693 -3.25569,-1.96027 -4.65625,-3.44336 -9.94734,-10.532139 2.01365,-23.6403618 2.52539,-24.1914059 0.66094,-0.7057229 0.76258,-1.7502391 0.25195,-2.5644531 -0.38297,-0.609855 -1.04439,-0.9801435 -1.75,-1.0234375 z"
     id="path3"
     inkscape:connector-curvature="0" /><g
     id="g5"
     transform="translate(0,-113.16701)" /><g
     id="g7"
     transform="translate(0,-113.16701)" /><g
     id="g9"
     transform="translate(0,-113.16701)" /><g
     id="g11"
     transform="translate(0,-113.16701)" /><g
     id="g13"
     transform="translate(0,-113.16701)" /><g
     id="g15"
     transform="translate(0,-113.16701)" /><g
     id="g17"
     transform="translate(0,-113.16701)" /><g
     id="g19"
     transform="translate(0,-113.16701)" /><g
     id="g21"
     transform="translate(0,-113.16701)" /><g
     id="g23"
     transform="translate(0,-113.16701)" /><g
     id="g25"
     transform="translate(0,-113.16701)" /><g
     id="g27"
     transform="translate(0,-113.16701)" /><g
     id="g29"
     transform="translate(0,-113.16701)" /><g
     id="g31"
     transform="translate(0,-113.16701)" /><g
     id="g33"
     transform="translate(0,-113.16701)" /><path
     d="m 188.99121,22.267233 c -0.12125,0.0099 -0.24616,0.0302 -0.36719,0.06055 -0.966,0.241686 -1.64579,1.081887 -1.66016,2.050781 -0.001,0.09068 -0.10304,6.305917 -0.66406,13.361329 l 4.44531,0 c 0.15828,-2.004752 0.28333,-3.940968 0.37305,-5.675782 l 2.29102,3.914063 c 0.4001,0.68424 1.13342,1.123338 1.96679,1.08789 l 4.58204,-0.08984 4.66796,0.08984 c 0.80463,0.04404 1.56559,-0.40365 1.9668,-1.08789 l 2.28906,-3.914063 c 0.0897,1.73522 0.21591,3.671084 0.375,5.675782 l 4.44336,0 c -0.56204,-7.055412 -0.66645,-13.270652 -0.66797,-13.361329 -0.0144,-0.969967 -0.69416,-1.809095 -1.66014,-2.050781 -0.9671,-0.239538 -1.97582,0.178462 -2.46875,1.019531 l -5.50587,9.398438 -3.43944,-0.06445 -3.35743,0.06445 -5.5039,-9.398438 c -0.37053,-0.631606 -1.03035,-1.025195 -1.7461,-1.080078 -0.11928,-0.0091 -0.23811,-0.0099 -0.35938,0 z"
     id="path3395"
     inkscape:connector-curvature="0" /><path
     id="path3409"
     d="m 250.09497,3.5098045 c 0.2352,-0.01443 0.47469,0.0066 0.71094,0.068359 0.67421,0.175088 16.60268,4.3531563 25.98633,8.5488285 26.45219,11.82436 39.34416,27.992068 36.30469,45.523438 -4.44757,25.65525 -37.87271,38.184108 -39.29297,38.705078 -0.88199,0.32332 -1.8742,0.07081 -2.47657,-0.632813 -0.60237,-0.70358 -0.68163,-1.700235 -0.19531,-2.484375 0.0376,-0.0602 3.76294,-6.107871 4.6582,-10.832031 0.23653,-1.24603 0.82676,-5.52271 -1.50976,-8.25 -1.36168,-1.58976 -3.57853,-2.394531 -6.58594,-2.394531 l -0.15039,0 c -1.11044,0.01 -2.22872,0.174969 -3.33594,0.449219 l 0,-4.400391 c 1.08629,-0.21072 2.18709,-0.335973 3.29297,-0.345703 l 0.18946,0 c 4.38236,0 7.7429,1.326709 9.98437,3.943359 3.46941,4.04851 2.87652,9.583021 2.46094,11.775391 -0.41889,2.21062 -1.31944,4.589363 -2.25781,6.658203 9.48203,-4.64252 27.87959,-15.723783 30.85937,-32.908203 3.43073,-19.78817 -16.48434,-33.164094 -33.79492,-40.902344 -5.52631,-2.47165 -13.68454,-5.009168 -19.22852,-6.6171876 3.95683,6.7242396 6.41219,16.5737866 -1.33789,24.7792966 -2.31054,2.44624 -4.98514,4.20051 -7.91015,5.22461 l 0,-4.685547 c 1.6858,-0.81693 3.25569,-1.96027 4.65625,-3.44336 9.94734,-10.532139 -2.01365,-23.6403618 -2.52539,-24.1914059 -0.66094,-0.7057229 -0.76259,-1.7502391 -0.25196,-2.5644531 0.38297,-0.609855 1.04439,-0.9801435 1.75,-1.0234375 z"
     inkscape:connector-curvature="0" /></svg>